<?xml version="1.0" encoding="UTF-8"?><svg id="_レイヤー_2" xmlns="http://www.w3.org/2000/svg" viewBox="0 0 437.95978 500"><defs><style>.cls-1{fill:#4ec6d9;}</style></defs><g id="_饑1"><g><path class="cls-1" d="M433.14488,132.4934l-25.1262-23.1922L322.04719,29.9411l-28.1364-25.9759c-2.8242-2.6057-6.4657-3.9652-10.1557-3.9652H85.019c-20.06861,0-36.39051,16.322-36.39051,36.3906V245.0515h29.9411V36.3906c0-3.5606,2.8969-6.4495,6.44941-6.4495h183.76549v113.5496c0,8.2702,6.7003,14.9705,14.9706,14.9705h124.2636V463.6095c0,3.5605-2.897,6.4494-6.4495,6.4494H85.019c-3.55251,0-6.44941-2.8889-6.44941-6.4494v-49.1463h-29.9411v49.1463c0,20.0686,16.3219,36.3905,36.39051,36.3905H401.56918c20.0605,0,36.3906-16.3219,36.3906-36.3905V143.4987c0-4.1027-1.6832-8.1163-4.8149-11.0053Z"/><path class="cls-1" d="M74.20859,305.2281c-.9514-.2518-3.1685-.5579-8.2137-.5579h-16.18689v21.5002h16.37939c5.5351,0,9.4431-.9764,11.6159-2.901,2.137-1.8938,3.1758-4.5402,3.1758-8.0896,0-2.5803-.6199-4.7078-1.89509-6.5037-1.24811-1.758-2.843-2.8865-4.87541-3.448Z"/><path class="cls-1" d="M146.38659,305.9871c-2.26959-.8731-6.1088-1.3169-11.4035-1.3169h-12.96309v50.1743h13.204c4.43249,0,7.92079-.4058,10.36839-1.2064,2.3539-.7708,4.2354-1.8494,5.5922-3.2052,1.9961-1.9971,3.5851-4.754,4.7222-8.1956,1.1666-3.5322,1.7584-7.9094,1.7584-13.0094,0-6.9955-1.1303-12.3916-3.3601-16.0397-2.1936-3.5875-4.85809-6.011-7.9185-7.2011Z"/><path class="cls-1" d="M273.23519,376.2022v-92.8897c0-10.0853-8.1757-18.261-18.261-18.261H18.261c-10.08531,0-18.261,8.1757-18.261,18.261v92.8897c0,10.0853,8.17569,18.261,18.261,18.261H254.97419c10.0853,0,18.261-8.1757,18.261-18.261Zm-185.1387-44.8286c-4.2233,4.5954-11.4371,6.8297-22.05349,6.8297h-16.235v28.6742h-13.04331v-74.2403h28.4604c4.8368,0,8.4546,.23,11.0598,.7028,3.6912,.6159,6.8733,1.8268,9.4319,3.5947,2.59521,1.7969,4.7027,4.3265,6.26421,7.519,1.546,3.1627,2.32979,6.6741,2.32979,10.4372,0,6.4494-2.0907,11.9949-6.2143,16.4827Zm80.9451,12.7765c-1.3038,4.3129-3.0137,7.9528-5.0823,10.8203-2.07629,2.8764-4.3962,5.1823-6.8959,6.8551-2.49839,1.671-5.5301,2.9489-9.0121,3.7967-3.4131,.8332-7.3732,1.2553-11.769,1.2553h-27.3056v-74.2403h26.1508c5.6783,0,9.9237,.346,12.9781,1.0578,4.3107,.9936,8.0562,2.8267,11.1269,5.4478,3.9393,3.3284,6.929,7.6404,8.8784,12.8082,1.91511,5.0791,2.886,10.9398,2.886,17.4219,0,5.5129-.65789,10.4852-1.9553,14.7772Zm68.4289-39.4799h-38.2487v18.1328h33.1008v12.033h-33.1008v32.0415h-13.0432v-74.2403h51.2919v12.033Z"/></g></g></svg>