<svg xmlns="http://www.w3.org/2000/svg" xmlns:xlink="http://www.w3.org/1999/xlink" width="12.649" height="12.401" viewBox="0 0 12.649 12.401"><defs><clipPath id="a"><rect width="12.649" height="12.401" transform="translate(0 0)" fill="#4ec6d9"/></clipPath></defs><g transform="translate(0 0)"><g clip-path="url(#a)"><path d="M11.347.268H8.4a.764.764,0,0,0,0,1.528H9.528L5.5,5.822A.774.774,0,0,0,6.6,6.916L10.615,2.9V4.012a.765.765,0,0,0,1.529,0V1.071a.818.818,0,0,0-.8-.8" fill="#4ec6d9"/><path d="M11.75,12.4H.9a.9.9,0,0,1-.9-.9V.9A.9.9,0,0,1,.9,0H3.467a.9.9,0,1,1,0,1.8H1.8v8.8h9.049V9.111a.9.9,0,1,1,1.8,0V11.5a.9.9,0,0,1-.9.9" fill="#4ec6d9"/></g></g></svg>