<svg xmlns="http://www.w3.org/2000/svg" width="172" height="41" viewBox="0 0 172 41"><path d="M1133.9,33.489c-11.658,0-18.388,8.648-18.388,20.5s6.732,20.5,18.388,20.5,18.39-8.648,18.39-20.5S1145.556,33.489,1133.9,33.489Zm0,34.1c-7.4,0-10.26-6.747-10.26-13.6s2.856-13.6,10.26-13.6,10.263,6.749,10.263,13.6S1141.3,67.592,1133.9,67.592Z" transform="translate(-1014.832 -33.489)" fill="#003288"/><path d="M1057.436,34.158h29.222v6.894h-21.091v8.573h19.669v6.723h-19.669v9.588h21.091v6.895h-29.222Z" transform="translate(-1057.436 -32.997)" fill="#003288"/><path d="M1076.3,72.835h8.127v-11.6h7.364c9.952,0,16.637-4.84,16.637-13.537s-6.685-13.537-16.637-13.537H1076.3Zm15.492-18.5h-7.364V41.05h7.364c5.111,0,8.509,2.2,8.509,6.647s-3.4,6.645-8.514,6.645Z" transform="translate(-1043.598 -32.997)" fill="#003288"/><path d="M1146.841,34.158h-8.353V72.836h7.966V57.174c0-4.282-.157-8.091-.3-11.452.94,1.935,3.789,7.753,5.111,9.939l10.366,17.181h8.344V34.158h-7.965V49.435c0,4.285.158,8.485.3,11.839-.94-1.935-3.787-7.753-5.111-9.939Z" transform="translate(-997.973 -32.997)" fill="#003288"/><path d="M1103.589,60.533c0,5.2,4.372,7.226,9.019,7.226,3.042,0,7.966-.875,7.966-4.873,0-4.215-6.024-5.012-11.833-6.54-6.094-1.593-11.953-3.86-11.953-11.029,0-7.991,7.632-11.824,14.767-11.824,8.242,0,15.818,3.56,15.818,12.593h-8.13c-.278-4.71-3.926-5.914-8.073-5.914-2.769,0-6.255,1.15-6.255,4.435,0,3.011,1.987,3.479,11.891,6,2.875.711,11.9,2.433,11.9,11.3,0,7.171-5.695,12.537-16.43,12.537-8.738,0-16.925-4.268-16.814-13.9Z" transform="translate(-1029.541 -33.488)" fill="#003288"/></svg>