<svg xmlns="http://www.w3.org/2000/svg" width="138" height="47.681" viewBox="0 0 138 47.681">
  <g id="グループ_4" data-name="グループ 4" transform="translate(-1057.436 -33.489)">
    <g id="グループ_2" data-name="グループ 2" transform="translate(1057.436 72.08)">
      <g id="グループ_1" data-name="グループ 1">
        <path id="パス_1" data-name="パス 1" d="M1057.436,61.384h6.247V62.7h-4.728v2.27h4.375v1.239h-4.375v2.541h4.811v1.313h-6.33Z" transform="translate(-1057.436 -61.174)" fill="#1a1311"/>
        <path id="パス_2" data-name="パス 2" d="M1062.915,61.384h1.81l1.968,3.061,2.057-3.061h1.7l-2.869,4.177,3.075,4.5h-1.846l-2.163-3.319-2.2,3.319h-1.739l3.077-4.5Z" transform="translate(-1055.376 -61.174)" fill="#1a1311"/>
        <path id="パス_3" data-name="パス 3" d="M1075.16,64.2A2.076,2.076,0,0,0,1073,62.472c-1.858,0-2.637,1.643-2.637,3.3s.779,3.309,2.637,3.309a2.236,2.236,0,0,0,2.213-2.273h1.481A3.553,3.553,0,0,1,1073,70.322c-2.6,0-4.158-2.066-4.158-4.547s1.555-4.541,4.158-4.541c1.958.013,3.5,1.093,3.682,2.966Z" transform="translate(-1052.978 -61.233)" fill="#1a1311"/>
        <path id="パス_4" data-name="パス 4" d="M1076.055,61.384h6.244V62.7h-4.726v2.27h4.377v1.239h-4.377v2.541h4.814v1.313h-6.332Z" transform="translate(-1050.157 -61.174)" fill="#1a1311"/>
        <path id="パス_5" data-name="パス 5" d="M1082.261,61.384h6.244V62.7h-4.724v2.27h4.375v1.239h-4.375v2.541h4.81v1.313h-6.33Z" transform="translate(-1047.731 -61.174)" fill="#1a1311"/>
        <path id="パス_6" data-name="パス 6" d="M1088.467,61.384h3.6c2.673,0,3.827,1.943,3.827,4.333s-1.153,4.343-3.827,4.343h-3.6Zm1.52,7.436h1.494c2.381,0,2.893-1.36,2.893-3.1s-.512-3.093-2.893-3.093h-1.494Z" transform="translate(-1045.304 -61.174)" fill="#1a1311"/>
        <path id="パス_7" data-name="パス 7" d="M1100.264,66.654l-3.256-5.27h1.762l2.3,3.886,2.26-3.886h1.7l-3.242,5.27v3.405h-1.52Z" transform="translate(-1041.965 -61.174)" fill="#1a1311"/>
        <path id="パス_8" data-name="パス 8" d="M1111.316,65.775c0,2.481-1.555,4.547-4.153,4.547S1103,68.257,1103,65.775s1.556-4.541,4.159-4.541S1111.316,63.3,1111.316,65.775Zm-6.792,0c0,1.668.776,3.309,2.639,3.309s2.633-1.641,2.633-3.309-.776-3.3-2.633-3.3S1104.524,64.115,1104.524,65.775Z" transform="translate(-1039.621 -61.233)" fill="#1a1311"/>
        <path id="パス_9" data-name="パス 9" d="M1110.3,61.384h1.522v5.052c0,1.17.072,2.516,2.039,2.516s2.042-1.346,2.042-2.516V61.384h1.519v5.553c0,2.221-1.419,3.327-3.561,3.327s-3.561-1.106-3.561-3.327Z" transform="translate(-1036.769 -61.174)" fill="#1a1311"/>
        <path id="パス_10" data-name="パス 10" d="M1117.115,61.384h4.145c1.895,0,2.867.875,2.867,2.342a2.1,2.1,0,0,1-1.431,2.187v.025c.52.074,1.287.463,1.287,1.836a3.962,3.962,0,0,0,.473,2.285h-1.627a2.42,2.42,0,0,1-.232-1.278c0-1.591-.328-2.294-1.726-2.294h-2.235v3.572h-1.519Zm1.519,3.946h2.493c.958,0,1.481-.473,1.481-1.383,0-1.106-.716-1.324-1.508-1.324h-2.466Z" transform="translate(-1034.104 -61.174)" fill="#1a1311"/>
        <path id="パス_11" data-name="パス 11" d="M1126.089,61.384h1.583l2.175,6.866h.024l2.223-6.866h1.547l-2.968,8.675h-1.689Z" transform="translate(-1030.596 -61.174)" fill="#1a1311"/>
        <path id="パス_12" data-name="パス 12" d="M1132.644,61.384h1.517v8.675h-1.517Z" transform="translate(-1028.033 -61.174)" fill="#1a1311"/>
        <path id="パス_13" data-name="パス 13" d="M1136.618,67.224c0,1.338.985,1.861,2.2,1.861,1.338,0,1.836-.657,1.836-1.313a1.035,1.035,0,0,0-.718-1.071c-.608-.228-1.4-.389-2.587-.716a2.2,2.2,0,0,1-1.921-2.2c0-1.735,1.6-2.552,3.171-2.552,1.812,0,3.331.964,3.331,2.774h-1.519c-.072-1.118-.829-1.534-1.875-1.534-.7,0-1.588.257-1.588,1.132,0,.609.409.947,1.032,1.118.134.035,2.054.533,2.5.666a2.3,2.3,0,0,1,1.693,2.216c0,1.943-1.729,2.718-3.454,2.718-1.981,0-3.587-.95-3.622-3.1Z" transform="translate(-1027.074 -61.233)" fill="#1a1311"/>
        <path id="パス_14" data-name="パス 14" d="M1141.668,61.384h1.519v8.675h-1.519Z" transform="translate(-1024.505 -61.174)" fill="#1a1311"/>
        <path id="パス_15" data-name="パス 15" d="M1152.5,65.776c0,2.481-1.558,4.547-4.158,4.547s-4.155-2.066-4.155-4.547,1.554-4.543,4.155-4.543S1152.5,63.3,1152.5,65.776Zm-6.795,0c0,1.668.778,3.309,2.637,3.309s2.64-1.641,2.64-3.309-.779-3.3-2.64-3.3S1145.7,64.115,1145.7,65.776Z" transform="translate(-1023.52 -61.233)" fill="#1a1311"/>
        <path id="パス_16" data-name="パス 16" d="M1151.588,61.384h1.6l3.963,6.39h.024v-6.39h1.447v8.675h-1.6l-3.952-6.38h-.033v6.38h-1.448Z" transform="translate(-1020.627 -61.174)" fill="#1a1311"/>
      </g>
    </g>
    <g id="グループ_3" data-name="グループ 3" transform="translate(1057.436 33.489)">
      <path id="パス_17" data-name="パス 17" d="M1130.259,33.489c-9.351,0-14.75,7.008-14.75,16.612s5.4,16.614,14.75,16.614,14.751-7.008,14.751-16.614S1139.611,33.489,1130.259,33.489Zm0,27.637c-5.939,0-8.23-5.468-8.23-11.025s2.291-11.025,8.23-11.025,8.232,5.469,8.232,11.025S1136.2,61.126,1130.259,61.126Z" transform="translate(-1034.731 -33.489)" fill="#003288"/>
      <path id="パス_18" data-name="パス 18" d="M1057.436,34.158h23.44v5.59h-16.918V46.7h15.777v5.452h-15.777v7.775h16.918v5.591h-23.44Z" transform="translate(-1057.436 -33.227)" fill="#003288"/>
      <path id="パス_19" data-name="パス 19" d="M1076.3,65.521h6.519V56.113h5.907c7.983,0,13.345-3.925,13.345-10.977s-5.362-10.977-13.345-10.977H1076.3Zm12.427-15h-5.907V39.747h5.907c4.1,0,6.825,1.786,6.825,5.39S1092.822,50.525,1088.723,50.525Z" transform="translate(-1050.062 -33.227)" fill="#003288"/>
      <path id="パス_20" data-name="パス 20" d="M1145.188,34.158h-6.7V65.521h6.39v-12.7c0-3.472-.126-6.561-.243-9.286.754,1.569,3.039,6.287,4.1,8.059l8.315,13.932h6.693V34.158h-6.389V46.546c0,3.475.127,6.88.242,9.6-.754-1.569-3.038-6.287-4.1-8.059Z" transform="translate(-1025.747 -33.227)" fill="#003288"/>
      <path id="パス_21" data-name="パス 21" d="M1101.98,55.406c0,4.215,3.507,5.856,7.234,5.856,2.44,0,6.39-.709,6.39-3.949,0-3.416-4.832-4.062-9.492-5.3-4.888-1.291-9.588-3.128-9.588-8.938,0-6.476,6.122-9.582,11.845-9.582,6.611,0,12.688,2.885,12.688,10.205h-6.521c-.223-3.817-3.149-4.793-6.476-4.793-2.221,0-5.017.932-5.017,3.594,0,2.44,1.594,2.819,9.538,4.86,2.306.576,9.543,1.972,9.543,9.159,0,5.811-4.568,10.16-13.179,10.16-7.009,0-13.576-3.459-13.487-11.268Z" transform="translate(-1042.57 -33.489)" fill="#003288"/>
    </g>
  </g>
</svg>
