<svg xmlns="http://www.w3.org/2000/svg" width="103.489" height="91.222" viewBox="0 0 103.489 91.222"><g transform="translate(-39.738 -456.936)"><path d="M91.222,45.611a45.611,45.611,0,1,0-54.3,44.777l6.23,11.628a2.791,2.791,0,0,0,2.462,1.474,2.743,2.743,0,0,0,2.461-1.416l6.29-11.7A45.686,45.686,0,0,0,91.222,45.611Z" transform="translate(39.738 548.158) rotate(-90)" fill="#bae6b3"/><g transform="translate(55.663 483.198)"><rect width="54.349" height="33.104" transform="translate(2.797 2.797)" fill="#fff"/><path d="M166.535,611.13H112.186a2.8,2.8,0,0,1-2.8-2.8v-33.1a2.8,2.8,0,0,1,2.8-2.8h54.349a2.8,2.8,0,0,1,2.8,2.8v33.1A2.8,2.8,0,0,1,166.535,611.13Zm-53.36-3.785h52.372V576.218H113.175Z" transform="translate(-109.389 -572.432)" fill="#414141"/><path d="M164.539,622.438a2.792,2.792,0,0,1-1.573-.483l-19.817-13.485a2.8,2.8,0,1,1,3.147-4.625l18.243,12.414,18.244-12.414a2.8,2.8,0,1,1,3.147,4.625l-19.817,13.485A2.791,2.791,0,0,1,164.539,622.438Z" transform="translate(-134.568 -596.365)" fill="#bae6b3"/></g></g></svg>