<svg xmlns="http://www.w3.org/2000/svg" width="80.363" height="80.363" viewBox="0 0 80.363 80.363"><g transform="translate(-96 -974)"><g transform="translate(173.015 980.697)"><path d="M406.257,1039.341a1.674,1.674,0,0,1-1.674-1.674v-35.159a1.674,1.674,0,0,1,3.349,0v35.159A1.674,1.674,0,0,1,406.257,1039.341Z" transform="translate(-404.583 -1000.834)" fill="#414141"/></g><g transform="translate(96 980.697)"><path d="M142.878,1057.758H131.851a7.332,7.332,0,0,1-5.223-2.165,4.006,4.006,0,0,0-2.853-1.183H99.349A3.352,3.352,0,0,1,96,1051.061v-48.553a1.674,1.674,0,0,1,3.349,0v48.553h24.426a7.332,7.332,0,0,1,5.223,2.166,4.006,4.006,0,0,0,2.853,1.183h11.027a1.674,1.674,0,1,1,0,3.348Z" transform="translate(-96 -1000.834)" fill="#414141"/></g><g transform="translate(102.697 977.349)"><path d="M156.318,1040.992h-1.674a1.674,1.674,0,0,1-1.339-.67,6.573,6.573,0,0,0-5.358-2.679H124.507a1.674,1.674,0,0,1-1.674-1.674V989.091a1.674,1.674,0,0,1,1.674-1.674h6.7a1.674,1.674,0,0,1,0,3.348h-5.023v43.53h21.765a9.735,9.735,0,0,1,6.7,2.549v-36.034c0-4.038-2.229-10.045-8.371-10.045H141.25a1.674,1.674,0,0,1,0-3.348h5.023c7.612,0,11.72,6.9,11.72,13.394v38.508A1.674,1.674,0,0,1,156.318,1040.992Z" transform="translate(-122.833 -987.417)" fill="#414141"/></g><g transform="translate(134.507 977.349)"><path d="M255.315,1040.992h-3.349a1.674,1.674,0,0,1-1.674-1.674v-38.508c0-6.493,4.108-13.394,11.72-13.394h21.765a1.674,1.674,0,0,1,1.674,1.674v36.833a1.674,1.674,0,0,1-3.349,0V990.765H262.012c-6.142,0-8.371,6.007-8.371,10.045v36.833h1.674a1.674,1.674,0,0,1,0,3.348Z" transform="translate(-250.292 -987.417)" fill="#414141"/></g><g transform="translate(109.394 974)"><path d="M161.387,999.114a1.673,1.673,0,0,1-.929-.281l-4.094-2.729-4.094,2.729a1.674,1.674,0,0,1-2.6-1.393V975.674A1.674,1.674,0,0,1,151.341,974h10.045a1.674,1.674,0,0,1,1.674,1.674v21.765a1.673,1.673,0,0,1-1.674,1.674Zm-5.023-6.7a1.672,1.672,0,0,1,.929.281l2.42,1.613V977.348h-6.7v16.963l2.42-1.613A1.672,1.672,0,0,1,156.364,992.417Z" transform="translate(-149.667 -974)" fill="#bae6b3"/></g><g transform="translate(139.53 999.114)"><path d="M303.9,1121.5H282.137a1.674,1.674,0,0,1-1.674-1.674v-4.23a22.446,22.446,0,0,1-5.8-8.528c-.253-.566-.491-1.1-.722-1.562l-3.349-6.7a1.675,1.675,0,0,1-.177-.749,4.227,4.227,0,0,1,2.894-3.6,4.62,4.62,0,0,1,5.121.732c.75.738,1.461,1.46,2.031,2.047v-17.6a5.068,5.068,0,0,1,5.009-5.022h.152a5.009,5.009,0,0,1,4.884,5.022v12.031l10.3,2.134a7.6,7.6,0,0,1,6.439,7.6v8.371a7.213,7.213,0,0,1-1.051,3.386,4.2,4.2,0,0,0-.623,1.636v5.023A1.674,1.674,0,0,1,303.9,1121.5Zm-20.091-3.348h18.417v-3.349a6.762,6.762,0,0,1,1-3.185,4.409,4.409,0,0,0,.672-1.837v-8.371a4.356,4.356,0,0,0-3.758-4.319l-11.649-2.412a1.674,1.674,0,0,1-1.335-1.639v-13.394a1.637,1.637,0,0,0-1.613-1.674,1.739,1.739,0,0,0-1.735,1.674v20.091a1.674,1.674,0,0,1-1.674,1.674h-1.6a1.676,1.676,0,0,1-1.22-.527c-.015-.016-1.547-1.644-3.232-3.3a1.121,1.121,0,0,0-1-.177,2.532,2.532,0,0,0-1.165.574l3.016,6.033c.263.527.516,1.093.784,1.692,1.08,2.418,2.425,5.427,5.444,7.781a1.674,1.674,0,0,1,.645,1.32Z" transform="translate(-270.417 -1074.625)" fill="#414141"/></g><g transform="translate(146.227 1042.644)"><path d="M325.712,1260.762H298.924a1.674,1.674,0,0,1-1.674-1.674v-8.371a1.674,1.674,0,0,1,1.674-1.674h26.788a1.674,1.674,0,0,1,1.674,1.674v8.371A1.674,1.674,0,0,1,325.712,1260.762Zm-25.114-3.348h23.439v-5.023H300.6Z" transform="translate(-297.25 -1249.042)" fill="#414141"/></g></g></svg>