<svg xmlns="http://www.w3.org/2000/svg" xmlns:xlink="http://www.w3.org/1999/xlink" width="200" height="179" viewBox="0 0 200 179">
  <defs>
    <clipPath id="clip-path">
      <rect id="長方形_168" data-name="長方形 168" width="200" height="179" transform="translate(3727.427 2477.427)" opacity="0.58"/>
    </clipPath>
  </defs>
  <g id="menu_book" transform="translate(-3727.427 -2477.427)" clip-path="url(#clip-path)">
    <g id="menu_book-2" data-name="menu_book" transform="translate(3653 1514.5)">
      <g id="グループ_3726" data-name="グループ 3726" transform="translate(246.318 987.071)">
        <path id="パス_1875" data-name="パス 1875" d="M407.851,1075.993a3.268,3.268,0,0,1-3.268-3.268V1004.1a3.268,3.268,0,0,1,6.536,0v68.624A3.268,3.268,0,0,1,407.851,1075.993Z" transform="translate(-404.583 -1000.834)" fill="#414141"/>
      </g>
      <g id="グループ_3727" data-name="グループ 3727" transform="translate(96 987.071)">
        <path id="パス_1876" data-name="パス 1876" d="M187.5,1111.938H165.974a14.311,14.311,0,0,1-10.194-4.226,7.82,7.82,0,0,0-5.569-2.309H102.536A6.543,6.543,0,0,1,96,1098.867V1004.1a3.268,3.268,0,0,1,6.536,0v94.766h47.675a14.311,14.311,0,0,1,10.194,4.226,7.819,7.819,0,0,0,5.569,2.309H187.5a3.268,3.268,0,1,1,0,6.535Z" transform="translate(-96 -1000.834)" fill="#414141"/>
      </g>
      <g id="グループ_3728" data-name="グループ 3728" transform="translate(109.071 980.536)">
        <path id="パス_1877" data-name="パス 1877" d="M188.189,1091.986h-3.268a3.268,3.268,0,0,1-2.614-1.307,12.83,12.83,0,0,0-10.457-5.229H126.1a3.268,3.268,0,0,1-3.268-3.267v-91.5a3.268,3.268,0,0,1,3.268-3.268h13.071a3.268,3.268,0,0,1,0,6.535h-9.8v84.963H171.85a19,19,0,0,1,13.071,4.974v-70.33c0-7.881-4.351-19.607-16.339-19.607h-9.8a3.268,3.268,0,1,1,0-6.535h9.8c14.857,0,22.874,13.469,22.874,26.142v75.159A3.268,3.268,0,0,1,188.189,1091.986Z" transform="translate(-122.833 -987.417)" fill="#414141"/>
      </g>
      <g id="グループ_3729" data-name="グループ 3729" transform="translate(171.159 980.536)">
        <path id="パス_1878" data-name="パス 1878" d="M260.1,1091.986H253.56a3.268,3.268,0,0,1-3.268-3.268v-75.159c0-12.673,8.017-26.142,22.874-26.142h42.481a3.268,3.268,0,0,1,3.268,3.268v71.891a3.268,3.268,0,0,1-6.536,0V993.952H273.166c-11.988,0-16.339,11.725-16.339,19.607v71.892H260.1a3.268,3.268,0,0,1,0,6.535Z" transform="translate(-250.292 -987.417)" fill="#414141"/>
      </g>
      <g id="グループ_3730" data-name="グループ 3730" transform="translate(122.142 974)">
        <path id="パス_1879" data-name="パス 1879" d="M172.541,1023.017a3.266,3.266,0,0,1-1.813-.548l-7.991-5.327-7.991,5.327a3.267,3.267,0,0,1-5.08-2.719V977.268A3.267,3.267,0,0,1,152.935,974h19.607a3.268,3.268,0,0,1,3.268,3.268v42.482a3.266,3.266,0,0,1-3.268,3.268Zm-9.8-13.071a3.264,3.264,0,0,1,1.813.548l4.723,3.149V980.535H156.2v33.108l4.723-3.149A3.264,3.264,0,0,1,162.738,1009.946Z" transform="translate(-149.667 -974)" fill="#bae6b3"/>
      </g>
      <g id="グループ_3731" data-name="グループ 3731" transform="translate(180.963 1023.017)">
        <path id="パス_1880" data-name="パス 1880" d="M335.772,1166.123H293.291a3.268,3.268,0,0,1-3.268-3.268V1154.6c-6.293-5.4-9.176-11.855-11.316-16.645-.493-1.1-.959-2.146-1.41-3.047l-6.536-13.071a3.268,3.268,0,0,1-.345-1.462c0-2.831,2.217-5.588,5.648-7.025,3.7-1.548,7.527-1,9.994,1.429,1.463,1.44,2.851,2.85,3.964,4v-34.346a9.892,9.892,0,0,1,9.777-9.8l.106,0h.08l.112,0a9.777,9.777,0,0,1,9.532,9.8v23.482l20.11,4.165c7.626,1.525,12.568,7.35,12.568,14.834v16.339a14.078,14.078,0,0,1-2.052,6.609,8.189,8.189,0,0,0-1.215,3.194v9.8A3.268,3.268,0,0,1,335.772,1166.123Zm-39.213-6.535H332.5v-6.536a13.2,13.2,0,0,1,1.956-6.217,8.607,8.607,0,0,0,1.311-3.586v-16.339c0-6.461-5.615-8.086-7.336-8.43l-22.737-4.708a3.267,3.267,0,0,1-2.605-3.2v-26.142a3.2,3.2,0,0,0-3.149-3.268,3.394,3.394,0,0,0-3.387,3.268v39.214a3.267,3.267,0,0,1-3.268,3.268h-3.128a3.271,3.271,0,0,1-2.381-1.029c-.03-.032-3.02-3.208-6.308-6.446a2.189,2.189,0,0,0-1.944-.346,4.938,4.938,0,0,0-2.274,1.121l5.887,11.774c.514,1.028,1.008,2.134,1.531,3.3,2.109,4.72,4.733,10.593,10.627,15.188a3.267,3.267,0,0,1,1.258,2.577Z" transform="translate(-270.417 -1074.625)" fill="#414141"/>
      </g>
      <g id="グループ_3732" data-name="グループ 3732" transform="translate(194.034 1107.979)">
        <path id="パス_1881" data-name="パス 1881" d="M352.8,1271.917H300.518a3.268,3.268,0,0,1-3.268-3.268V1252.31a3.267,3.267,0,0,1,3.268-3.268H352.8a3.267,3.267,0,0,1,3.268,3.268v16.339A3.268,3.268,0,0,1,352.8,1271.917Zm-49.017-6.535h45.749v-9.8H303.786Z" transform="translate(-297.25 -1249.042)" fill="#414141"/>
      </g>
    </g>
  </g>
</svg>
