<svg xmlns="http://www.w3.org/2000/svg" xmlns:xlink="http://www.w3.org/1999/xlink" width="200" height="179" viewBox="0 0 200 179">
  <defs>
    <clipPath id="clip-path">
      <rect id="長方形_167" data-name="長方形 167" width="200" height="179" transform="translate(3827 2789.613)" opacity="0.58"/>
    </clipPath>
  </defs>
  <g id="menu_chat" transform="translate(-3827 -2789.613)" clip-path="url(#clip-path)">
    <g id="グループ_3746" data-name="グループ 3746" transform="translate(3313.722 2663.394)">
      <g id="グループ_3723" data-name="グループ 3723" transform="translate(519.579 144.562)">
        <g id="グループ_3716" data-name="グループ 3716" transform="translate(41.973 15.82)">
          <path id="パス_1867" data-name="パス 1867" d="M597.8,273.228s-11.988-.493-11.988-15.477,2.051-87.12,2.051-87.12H718.519s15.874.573,15.8,23.174c-.047,14.715,0,66.354,0,66.354s-2.443,13.068-15.534,13.068H705.695l8.552,25.376-36.129-24.8Z" transform="translate(-585.811 -170.632)" fill="#fff"/>
        </g>
        <g id="グループ_3718" data-name="グループ 3718" transform="translate(0)">
          <g id="グループ_3717" data-name="グループ 3717">
            <path id="パス_1868" data-name="パス 1868" d="M675.574,235.581c0,6.268-5.083,13.331-11.353,13.331H579.052L540.693,273.85l7.093-24.938H533.551c-6.27,0-11.353-7.063-11.353-13.331V160.648c0-6.27,5.084-13.992,11.353-13.992h130.67c6.27,0,11.353,7.722,11.353,13.992Z" transform="translate(-522.198 -146.656)" fill="#fff"/>
          </g>
        </g>
        <g id="グループ_3719" data-name="グループ 3719" transform="translate(38.851 46.217)">
          <path id="パス_1869" data-name="パス 1869" d="M591.426,221.874a5.173,5.173,0,1,1-5.174-5.172A5.173,5.173,0,0,1,591.426,221.874Z" transform="translate(-581.08 -216.702)" fill="#414141"/>
        </g>
        <g id="グループ_3720" data-name="グループ 3720" transform="translate(60.255 46.217)">
          <path id="パス_1870" data-name="パス 1870" d="M623.866,221.874a5.173,5.173,0,1,1-5.174-5.172A5.173,5.173,0,0,1,623.866,221.874Z" transform="translate(-613.52 -216.702)" fill="#414141"/>
        </g>
        <g id="グループ_3721" data-name="グループ 3721" transform="translate(81.66 46.217)">
          <path id="パス_1871" data-name="パス 1871" d="M656.307,221.874a5.173,5.173,0,1,1-5.174-5.172A5.174,5.174,0,0,1,656.307,221.874Z" transform="translate(-645.961 -216.702)" fill="#414141"/>
        </g>
        <g id="グループ_3722" data-name="グループ 3722" transform="translate(103.065 46.217)">
          <path id="パス_1872" data-name="パス 1872" d="M688.747,221.874a5.173,5.173,0,1,1-5.174-5.172A5.174,5.174,0,0,1,688.747,221.874Z" transform="translate(-678.401 -216.702)" fill="#414141"/>
        </g>
      </g>
      <g id="グループ_3724" data-name="グループ 3724" transform="translate(514.5 140.5)">
        <path id="パス_1873" data-name="パス 1873" d="M538.253,274.772a3.959,3.959,0,0,1-3.8-5.063l5.33-18.361h-4.167A21.138,21.138,0,0,1,514.5,230.234v-68.62A21.138,21.138,0,0,1,535.614,140.5H656.359a21.138,21.138,0,0,1,21.114,21.114v68.62a21.138,21.138,0,0,1-21.114,21.114l-80.993-.013-34.951,22.794A3.952,3.952,0,0,1,538.253,274.772Zm-2.639-126.354a13.211,13.211,0,0,0-13.2,13.2v68.62a13.211,13.211,0,0,0,13.2,13.2h9.439a3.958,3.958,0,0,1,3.8,5.063l-3.824,13.173,27-17.606a3.959,3.959,0,0,1,2.163-.643h0l82.17.014a13.211,13.211,0,0,0,13.2-13.2v-68.62a13.211,13.211,0,0,0-13.2-13.2Z" transform="translate(-514.5 -140.5)" fill="#414141"/>
      </g>
      <g id="グループ_3725" data-name="グループ 3725" transform="translate(567.945 156.665)">
        <path id="パス_1874" data-name="パス 1874" d="M717.565,299.272a3.952,3.952,0,0,1-2.162-.643l-34.951-22.794-80.992.013a3.959,3.959,0,1,1,0-7.918l82.17-.014a3.957,3.957,0,0,1,2.163.643l27,17.606-3.824-13.173a3.958,3.958,0,0,1,3.8-5.063H720.2a13.211,13.211,0,0,0,13.2-13.2v-68.62a13.211,13.211,0,0,0-13.2-13.2h-6.6a3.959,3.959,0,0,1,0-7.918h6.6a21.138,21.138,0,0,1,21.114,21.114v68.62A21.138,21.138,0,0,1,720.2,275.848h-4.167l5.33,18.361a3.959,3.959,0,0,1-3.8,5.063Z" transform="translate(-595.5 -165)" fill="#bae6b3"/>
      </g>
    </g>
  </g>
</svg>
