<svg xmlns="http://www.w3.org/2000/svg" xmlns:xlink="http://www.w3.org/1999/xlink" width="200" height="179" viewBox="0 0 200 179">
  <defs>
    <clipPath id="clip-path">
      <rect id="長方形_169" data-name="長方形 169" width="200" height="179" transform="translate(3488 2858.86)" opacity="0.58"/>
    </clipPath>
  </defs>
  <g id="menu_mail" transform="translate(-3488 -2858.86)" clip-path="url(#clip-path)">
    <g id="menu_mail-2" data-name="menu_mail" transform="translate(3469.773 2402.53)">
      <path id="パス_1864" data-name="パス 1864" d="M196.227,535.34a78,78,0,1,0-92.864,76.573L114.017,631.8a4.773,4.773,0,0,0,4.21,2.52,4.69,4.69,0,0,0,4.209-2.421l10.756-20A78.129,78.129,0,0,0,196.227,535.34Z" fill="#bae6b3"/>
      <g id="グループ_3715" data-name="グループ 3715" transform="translate(66.972 501.847)">
        <g id="グループ_3714" data-name="グループ 3714">
          <rect id="長方形_159" data-name="長方形 159" width="92.943" height="56.612" transform="translate(4.784 4.784)" fill="#fff"/>
          <path id="パス_1865" data-name="パス 1865" d="M207.115,638.611H114.173a4.783,4.783,0,0,1-4.784-4.783V577.216a4.783,4.783,0,0,1,4.784-4.784h92.943a4.783,4.783,0,0,1,4.784,4.784v56.612A4.783,4.783,0,0,1,207.115,638.611Zm-91.252-6.473h89.562V578.906H115.863Z" transform="translate(-109.389 -572.432)" fill="#414141"/>
        </g>
        <path id="パス_1866" data-name="パス 1866" d="M180.6,635.986a4.775,4.775,0,0,1-2.691-.827L144.018,612.1a4.784,4.784,0,1,1,5.382-7.91l31.2,21.229,31.2-21.229a4.784,4.784,0,1,1,5.382,7.91l-33.889,23.061A4.774,4.774,0,0,1,180.6,635.986Z" transform="translate(-129.343 -591.399)" fill="#bae6b3"/>
      </g>
    </g>
  </g>
</svg>
