<svg xmlns="http://www.w3.org/2000/svg" width="90.333" height="68.198" viewBox="0 0 90.333 68.198"><g transform="translate(-514.5 -140.5)"><g transform="translate(516.803 142.341)"><g transform="translate(19.028 7.172)"><path d="M591.246,217.142s-5.435-.224-5.435-7.016.93-39.494.93-39.494h59.232s7.2.26,7.164,10.506c-.021,6.671,0,30.081,0,30.081s-1.107,5.924-7.042,5.924h-5.935l3.877,11.5L627.657,217.4Z" transform="translate(-585.811 -170.632)" fill="#fff"/></g><g transform="translate(0)"><path d="M591.729,186.969c0,2.842-2.3,6.044-5.147,6.044h-38.61l-17.39,11.305,3.216-11.305h-6.453c-2.842,0-5.147-3.2-5.147-6.044V153c0-2.842,2.3-6.343,5.147-6.343h59.237c2.842,0,5.147,3.5,5.147,6.343Z" transform="translate(-522.198 -146.656)" fill="#fff"/></g><g transform="translate(17.613 20.952)"><path d="M585.77,219.046a2.345,2.345,0,1,1-2.345-2.344A2.345,2.345,0,0,1,585.77,219.046Z" transform="translate(-581.08 -216.702)" fill="#414141"/></g><g transform="translate(27.316 20.952)"><path d="M618.21,219.046a2.345,2.345,0,1,1-2.345-2.344A2.345,2.345,0,0,1,618.21,219.046Z" transform="translate(-613.52 -216.702)" fill="#414141"/></g><g transform="translate(37.02 20.952)"><path d="M650.651,219.046a2.345,2.345,0,1,1-2.345-2.344A2.345,2.345,0,0,1,650.651,219.046Z" transform="translate(-645.961 -216.702)" fill="#414141"/></g><g transform="translate(46.723 20.952)"><path d="M683.091,219.046a2.345,2.345,0,1,1-2.345-2.344A2.345,2.345,0,0,1,683.091,219.046Z" transform="translate(-678.401 -216.702)" fill="#414141"/></g></g><g transform="translate(514.5 140.5)"><path d="M525.268,201.37a1.795,1.795,0,0,1-1.724-2.3l2.416-8.324h-1.889a9.583,9.583,0,0,1-9.572-9.572V150.072a9.583,9.583,0,0,1,9.572-9.572H578.81a9.583,9.583,0,0,1,9.572,9.572V181.18a9.583,9.583,0,0,1-9.572,9.572l-36.717-.006-15.844,10.333A1.792,1.792,0,0,1,525.268,201.37Zm-1.2-57.281a5.989,5.989,0,0,0-5.982,5.982V181.18a5.989,5.989,0,0,0,5.982,5.982h4.279a1.794,1.794,0,0,1,1.723,2.3l-1.734,5.972,12.239-7.982a1.8,1.8,0,0,1,.981-.292h0l37.25.006a5.989,5.989,0,0,0,5.982-5.982V150.072a5.989,5.989,0,0,0-5.982-5.982Z" transform="translate(-514.5 -140.5)" fill="#414141"/></g><g transform="translate(538.728 147.828)"><path d="M650.836,225.87a1.791,1.791,0,0,1-.98-.291l-15.845-10.333-36.717.006a1.795,1.795,0,1,1,0-3.589l37.25-.006a1.794,1.794,0,0,1,.981.292l12.239,7.982-1.734-5.972a1.794,1.794,0,0,1,1.723-2.3h4.279a5.989,5.989,0,0,0,5.982-5.982V174.572a5.989,5.989,0,0,0-5.982-5.982h-2.991a1.795,1.795,0,1,1,0-3.589h2.991a9.583,9.583,0,0,1,9.572,9.572V205.68a9.583,9.583,0,0,1-9.572,9.572h-1.889l2.416,8.323a1.795,1.795,0,0,1-1.724,2.3Z" transform="translate(-595.5 -165)" fill="#bae6b3"/></g></g></svg>