<svg xmlns="http://www.w3.org/2000/svg" width="69" height="99.526" viewBox="0 0 69 99.526"><g transform="translate(-578 -709.6)"><g transform="translate(578 724.971)"><rect width="48.859" height="78.74" transform="translate(2.689 2.94)" fill="#fff"/><path d="M682.272,1086.145a3.7,3.7,0,1,1-3.7-3.7A3.7,3.7,0,0,1,682.272,1086.145Z" transform="translate(-652.775 -1012.783)" fill="#bae6b3"/><rect width="48.577" height="59.068" transform="translate(2.281 8.894)" fill="#bae6b3"/><path d="M630.226,858.382a2.772,2.772,0,0,1-2.772,2.772H580.772A2.772,2.772,0,0,1,578,858.382v-78.61A2.772,2.772,0,0,1,580.772,777h46.681a2.772,2.772,0,0,1,2.772,2.772Zm-49.033-.193h45.84V780.649h-45.84Z" transform="translate(-578 -777)" fill="#414141"/></g><g transform="translate(627.863 709.6)"><g transform="translate(3.183 6.121)"><path d="M812.123,746.275a1.53,1.53,0,0,1-1.082-2.612l6.773-6.773a1.53,1.53,0,0,1,2.163,2.164l-6.773,6.773A1.525,1.525,0,0,1,812.123,746.275Z" transform="translate(-810.593 -736.441)" fill="#bae6b3"/></g><path d="M798.168,722.238a1.53,1.53,0,0,1-1.53-1.53V711.13a1.53,1.53,0,0,1,3.06,0v9.579A1.53,1.53,0,0,1,798.168,722.238Z" transform="translate(-796.638 -709.6)" fill="#bae6b3"/><g transform="translate(6.499 16.078)"><path d="M836.243,783.157h-9.578a1.53,1.53,0,1,1,0-3.06h9.578a1.53,1.53,0,1,1,0,3.06Z" transform="translate(-825.135 -780.097)" fill="#bae6b3"/></g></g></g></svg>